<?xml version="1.0" encoding="utf-8"?>
<!-- Generator: Adobe Illustrator 24.1.3, SVG Export Plug-In . SVG Version: 6.00 Build 0)  -->
<svg version="1.1" id="Capa_1" xmlns="http://www.w3.org/2000/svg" xmlns:xlink="http://www.w3.org/1999/xlink" x="0px" y="0px"
	 viewBox="0 0 182.5 173" style="enable-background:new 0 0 182.5 173;" xml:space="preserve">
<style type="text/css">
	.st0{fill:#7CA982;}
	.st1{fill:#FFFFFF;}
</style>
<g>
	<g id="Capa_2_1_">
		<g id="Capa_1-2">
			<path class="st0" d="M151.3,157.1H31.2c-6.9,0-12.5-5.6-12.5-12.5V33.4c0-9.7,7.8-17.5,17.5-17.5h110.1c9.7,0,17.5,7.8,17.5,17.5
				v111.1C163.8,151.5,158.2,157.1,151.3,157.1"/>
			<polygon class="st1" points="78.5,105.4 78.5,118 31.1,118 31.1,55 77.8,55 77.8,67.6 50,67.6 50,79.2 76.5,79.2 76.5,91.9 
				50,91.9 50,105.4 			"/>
			<polygon class="st1" points="151.4,55 151.4,70.3 128.3,70.3 128.3,118 109.3,118 109.3,70.3 86.2,70.3 86.2,55 			"/>
		</g>
	</g>
</g>
</svg>
