<?xml version="1.0" encoding="utf-8"?>
<!-- Generator: Adobe Illustrator 24.1.3, SVG Export Plug-In . SVG Version: 6.00 Build 0)  -->
<svg version="1.1" id="Capa_1" xmlns="http://www.w3.org/2000/svg" xmlns:xlink="http://www.w3.org/1999/xlink" x="0px" y="0px"
	 viewBox="0 0 182.6 173" style="enable-background:new 0 0 182.6 173;" xml:space="preserve">
<style type="text/css">
	.st0{fill:#6A5B77;}
	.st1{fill:#FFFFFF;}
</style>
<g>
	<g id="Capa_2_1_">
		<g id="Capa_1-2">
			<path class="st0" d="M151.4,157H31.3c-6.9,0-12.5-5.6-12.5-12.5V32.9c0-9.3,7.6-16.9,16.9-16.9h111.2c9.3,0,16.9,7.6,16.9,16.9
				v111.7C163.9,151.5,158.3,157.1,151.4,157"/>
			<polygon class="st1" points="44.6,58.4 73.7,89.5 73.7,58.4 90.6,58.4 90.6,114.6 75.5,114.6 46.4,83.3 46.4,114.6 29.6,114.6 
				29.6,58.4 			"/>
			<path class="st1" d="M151.9,75c-5.6-3.5-12.1-5.3-18.6-5.2c-15.9,0-19.5,10.9-19.5,16.8c0,8.3,5.9,15.8,17.7,15.8
				c2.3,0,4.6-0.3,6.9-0.8v-6.6h-7.6V83.6H153v26.9c-2.9,1.2-5.9,2.1-9,2.9c-5.2,1.2-10.4,1.8-15.8,1.8c-16.5,0-31.7-8.7-31.7-28.9
				c0-7.5,2.6-16.4,9.1-21.5c8-6.3,16-7.1,23.5-7.1c7.8,0,15.5,1.4,22.8,4.1L151.9,75z"/>
		</g>
	</g>
</g>
</svg>
