<?xml version="1.0" encoding="utf-8"?>
<!-- Generator: Adobe Illustrator 24.1.3, SVG Export Plug-In . SVG Version: 6.00 Build 0)  -->
<svg version="1.1" id="Capa_1" xmlns="http://www.w3.org/2000/svg" xmlns:xlink="http://www.w3.org/1999/xlink" x="0px" y="0px"
	 viewBox="0 0 182.6 172" style="enable-background:new 0 0 182.6 172;" xml:space="preserve">
<style type="text/css">
	.st0{fill:#5A759D;}
	.st1{fill:#FFFFFF;}
</style>
<g>
	<g id="Capa_2_1_">
		<g id="Capa_1-2">
			<path class="st0" d="M151.3,156.6H31.3c-6.9,0-12.5-5.6-12.5-12.5V29.3c0-7.7,6.2-13.9,13.9-13.9H150c7.7,0,13.9,6.2,13.9,13.9
				v114.7C163.8,151,158.2,156.6,151.3,156.6"/>
			<polygon class="st1" points="89.9,58.2 89.9,71.8 69.6,71.8 69.6,113.8 52.9,113.8 52.9,71.8 32.5,71.8 32.5,58.2 			"/>
			<path class="st1" d="M149,74.7c-5.5-3.4-11.9-5.2-18.4-5.2c-15.7,0-19.3,10.8-19.3,16.6c0,8.2,5.8,15.6,17.5,15.6
				c2.3,0,4.6-0.3,6.8-0.8v-6.6H128V83.2h22.1v26.6c-2.9,1.2-5.9,2.1-8.9,2.9c-5.1,1.2-10.3,1.8-15.6,1.8
				c-16.3,0-31.4-8.6-31.4-28.6c0-7.4,2.5-16.2,9-21.3c8-6.2,15.8-7,23.3-7c7.7,0,15.3,1.4,22.5,4L149,74.7z"/>
		</g>
	</g>
</g>
</svg>
